<svg xmlns="http://www.w3.org/2000/svg" width="3000" height="3043" viewBox="0 0 30000 30423" style="image-rendering:optimizeQuality;shape-rendering:geometricPrecision;text-rendering:geometricPrecision"><defs><style type="text/css">  
    .str0 {stroke:black;stroke-width:4.99948}
    .fil0 {fill:none}
   </style></defs><path class="fil0 str0" d="M2 2l745 0c-248 77-496 154-745 230l0-230z"/><path class="fil0 str0" d="M747 2c256 0 536 0 792 0-504 170-1016 338-1537 506l0-276c249-76 497-153 745-230z"/><path class="fil0 str0" d="M1539 2c281 0 536 0 791 0-754 270-1530 537-2328 803l0-297c521-168 1033-336 1537-506z"/><path class="fil0 str0" d="M2330 2c281 0 536 0 817 0-791 293-1557 581-2374 870l-771 0 0-67c798-266 1574-533 2328-803z"/><path class="fil0 str0" d="M2 872l771 0c-257 93-514 187-771 281l0-281z"/><path class="fil0 str0" d="M3147 2c255 0 536 0 791 0-740 293-1455 581-2221 870-306 0-638 0-944 0 817-289 1583-577 2374-870z"/><path class="fil0 str0" d="M773 872c306 0 638 0 944 0-560 226-1153 452-1715 679l0-398c257-94 514-188 771-281z"/><path class="fil0 str0" d="M3938 2c256 0 537 0 792 0-664 293-1353 581-2042 870-332 0-639 0-971 0 766-289 1481-577 2221-870z"/><path class="fil0 str0" d="M1717 872c332 0 639 0 971 0-664 288-1379 577-2017 865l-669 0 0-186c562-227 1155-453 1715-679z"/><path class="fil0 str0" d="M2 1737l669 0c-227 93-449 186-669 279l0-279z"/><path class="fil0 str0" d="M4730 2c281 0 536 0 817 0-638 293-1251 581-1889 870-332 0-664 0-970 0 689-289 1378-577 2042-870z"/><path class="fil0 str0" d="M2688 872c306 0 638 0 970 0-639 288-1277 577-1890 865-357 0-740 0-1097 0 638-288 1353-577 2017-865z"/><path class="fil0 str0" d="M671 1737c357 0 740 0 1097 0-597 274-1171 547-1766 817l0-538c220-93 442-186 669-279z"/><path class="fil0 str0" d="M5547 2c255 0 510 0 791 0-561 293-1149 581-1736 870-332 0-638 0-944 0 638-289 1251-577 1889-870z"/><path class="fil0 str0" d="M3658 872c306 0 612 0 944 0-561 288-1149 577-1710 865-383 0-741 0-1124 0 613-288 1251-577 1890-865z"/><path class="fil0 str0" d="M1768 1737c383 0 741 0 1124 0-587 292-1149 584-1736 873l-1154 0 0-56c595-270 1169-543 1766-817z"/><path class="fil0 str0" d="M2 2610l1154 0c-387 192-774 383-1154 574l0-574z"/><path class="fil0 str0" d="M6338 2c256 0 536 0 792 0-511 293-1022 581-1558 870-332 0-663 0-970 0 587-289 1175-577 1736-870z"/><path class="fil0 str0" d="M4602 872c307 0 638 0 970 0-536 288-1072 577-1557 865-383 0-740 0-1123 0 561-288 1149-577 1710-865z"/><path class="fil0 str0" d="M2892 1737c383 0 740 0 1123 0-536 292-1047 584-1583 873-434 0-868 0-1276 0 587-289 1149-581 1736-873z"/><path class="fil0 str0" d="M1156 2610c408 0 842 0 1276 0-510 292-1072 581-1583 869l-847 0 0-295c380-191 767-382 1154-574z"/><path class="fil0 str0" d="M2 3479l847 0c-283 153-567 306-847 458l0-458z"/><path class="fil0 str0" d="M7130 2c255 0 536 0 791 0-459 293-919 581-1404 870-332 0-638 0-945 0 536-289 1047-577 1558-870z"/><path class="fil0 str0" d="M5572 872c307 0 613 0 945 0-460 288-945 577-1404 865-358 0-741 0-1098 0 485-288 1021-577 1557-865z"/><path class="fil0 str0" d="M4015 1737c357 0 740 0 1098 0-485 292-945 584-1430 873-408 0-842 0-1251 0 536-289 1047-581 1583-873z"/><path class="fil0 str0" d="M2432 2610c409 0 843 0 1251 0-459 292-944 581-1404 869-485 0-945 0-1430 0 511-288 1073-577 1583-869z"/><path class="fil0 str0" d="M849 3479c485 0 945 0 1430 0-485 289-970 577-1430 866l-847 0 0-408c280-152 564-305 847-458z"/><path class="fil0 str0" d="M2 4345l847 0c-280 178-560 355-847 531l0-531z"/><path class="fil0 str0" d="M7921 2c281 0 536 0 817 0-408 293-817 581-1251 870-332 0-664 0-970 0 485-289 945-577 1404-870z"/><path class="fil0 str0" d="M6517 872c306 0 638 0 970 0-434 288-842 577-1251 865-357 0-740 0-1123 0 459-288 944-577 1404-865z"/><path class="fil0 str0" d="M5113 1737c383 0 766 0 1123 0-434 292-817 584-1251 873-434 0-868 0-1302 0 485-289 945-581 1430-873z"/><path class="fil0 str0" d="M3683 2610c434 0 868 0 1302 0-408 292-842 581-1251 869-485 0-970 0-1455 0 460-288 945-577 1404-869z"/><path class="fil0 str0" d="M2279 3479c485 0 970 0 1455 0-434 289-868 577-1276 866-536 0-1072 0-1609 0 460-289 945-577 1430-866z"/><path class="fil0 str0" d="M849 4345c537 0 1073 0 1609 0-409 292-817 581-1251 869l-1205 0 0-338c287-176 567-353 847-531z"/><path class="fil0 str0" d="M2 5214l1205 0c-393 281-810 562-1205 840l0-840z"/><path class="fil0 str0" d="M8738 2c255 0 511 0 791 0-357 293-714 581-1097 870-332 0-639 0-945 0 434-289 843-577 1251-870z"/><path class="fil0 str0" d="M7487 872c306 0 613 0 945 0-358 288-741 577-1073 865-383 0-740 0-1123 0 409-288 817-577 1251-865z"/><path class="fil0 str0" d="M6236 1737c383 0 740 0 1123 0-383 292-740 584-1123 873-408 0-842 0-1251 0 434-289 817-581 1251-873z"/><path class="fil0 str0" d="M4985 2610c409 0 843 0 1251 0-332 292-715 581-1072 869-485 0-970 0-1430 0 409-288 843-577 1251-869z"/><path class="fil0 str0" d="M3734 3479c460 0 945 0 1430 0-383 289-766 577-1123 866-537 0-1073 0-1583 0 408-289 842-577 1276-866z"/><path class="fil0 str0" d="M2458 4345c510 0 1046 0 1583 0-358 292-715 581-1098 869-587 0-1149 0-1736 0 434-288 842-577 1251-869z"/><path class="fil0 str0" d="M1207 5214c587 0 1149 0 1736 0-358 292-715 584-1072 873l-1869 0 0-33c395-278 812-559 1205-840z"/><path class="fil0 str0" d="M2 6087l1869 0c-383 292-741 580-1098 869l-771 0 0-869z"/><polygon class="fil0 str0" points="2 6956 773 6956 2 7578 "/><path class="fil0 str0" d="M9529 2c256 0 537 0 792 0-307 293-613 581-919 870-332 0-664 0-970 0 383-289 740-577 1097-870z"/><path class="fil0 str0" d="M8432 872c306 0 638 0 970 0-307 288-638 577-919 865-383 0-766 0-1124 0 332-288 715-577 1073-865z"/><path class="fil0 str0" d="M7359 1737c358 0 741 0 1124 0-332 292-639 584-945 873-434 0-868 0-1302 0 383-289 740-581 1123-873z"/><path class="fil0 str0" d="M6236 2610c434 0 868 0 1302 0-306 292-638 581-944 869-486 0-971 0-1430 0 357-288 740-577 1072-869z"/><path class="fil0 str0" d="M5164 3479c459 0 944 0 1430 0-332 289-639 577-945 866-536 0-1072 0-1608 0 357-289 740-577 1123-866z"/><path class="fil0 str0" d="M4041 4345c536 0 1072 0 1608 0-306 292-613 581-945 869-587 0-1174 0-1761 0 383-288 740-577 1098-869z"/><path class="fil0 str0" d="M2943 5214c587 0 1174 0 1761 0-306 292-612 584-919 873-638 0-1302 0-1914 0 357-289 714-581 1072-873z"/><path class="fil0 str0" d="M1871 6087c612 0 1276 0 1914 0-332 292-638 580-944 869-690 0-1379 0-2068 0 357-289 715-577 1098-869z"/><path class="fil0 str0" d="M773 6956c689 0 1378 0 2068 0-307 289-613 577-894 866l-1945 0 0-244 771-622z"/><path class="fil0 str0" d="M2 7822l1945 0c-332 292-664 584-970 872l-975 0 0-872z"/><path class="fil0 str0" d="M2 8694l975 0c-306 292-613 581-919 870l-56 0 0-870z"/><polygon class="fil0 str0" points="2 9564 58 9564 2 9616 "/><path class="fil0 str0" d="M10321 2c255 0 536 0 791 0-230 293-485 581-766 870-332 0-638 0-944 0 306-289 612-577 919-870z"/><path class="fil0 str0" d="M9402 872c306 0 612 0 944 0-255 288-536 577-766 865-357 0-740 0-1097 0 281-288 612-577 919-865z"/><path class="fil0 str0" d="M8483 1737c357 0 740 0 1097 0-255 292-510 584-791 873-408 0-842 0-1251 0 306-289 613-581 945-873z"/><path class="fil0 str0" d="M7538 2610c409 0 843 0 1251 0-230 292-511 581-766 869-485 0-944 0-1429 0 306-288 638-577 944-869z"/><path class="fil0 str0" d="M6594 3479c485 0 944 0 1429 0-255 289-536 577-791 866-536 0-1072 0-1583 0 306-289 613-577 945-866z"/><path class="fil0 str0" d="M5649 4345c511 0 1047 0 1583 0-256 292-511 581-766 869-587 0-1174 0-1762 0 332-288 639-577 945-869z"/><path class="fil0 str0" d="M4704 5214c588 0 1175 0 1762 0-255 292-536 584-766 873-638 0-1276 0-1915 0 307-289 613-581 919-873z"/><path class="fil0 str0" d="M3785 6087c639 0 1277 0 1915 0-281 292-536 580-791 869-690 0-1379 0-2068 0 306-289 612-577 944-869z"/><path class="fil0 str0" d="M2841 6956c689 0 1378 0 2068 0-256 289-485 577-741 866-740 0-1480 0-2221 0 281-289 587-577 894-866z"/><path class="fil0 str0" d="M1947 7822c741 0 1481 0 2221 0-281 292-536 584-791 872-792 0-1609 0-2400 0 306-288 638-580 970-872z"/><path class="fil0 str0" d="M977 8694c791 0 1608 0 2400 0-281 292-536 581-792 870-842 0-1685 0-2527 0 306-289 613-578 919-870z"/><path class="fil0 str0" d="M58 9564c842 0 1685 0 2527 0-229 288-485 577-765 865l-1818 0 0-813 56-52z"/><path class="fil0 str0" d="M2 10429l1818 0c-256 292-511 584-766 873l-1052 0 0-873z"/><path class="fil0 str0" d="M2 11302l1052 0c-256 292-511 581-766 869l-286 0 0-869z"/><path class="fil0 str0" d="M2 12171l286 0c-100 103-194 206-286 309l0-309z"/><path class="fil0 str0" d="M11112 2c281 0 536 0 817 0-204 293-408 581-613 870-331 0-663 0-970 0 281-289 536-577 766-870z"/><path class="fil0 str0" d="M10346 872c307 0 639 0 970 0-204 288-434 577-612 865-383 0-741 0-1124 0 230-288 511-577 766-865z"/><path class="fil0 str0" d="M9580 1737c383 0 741 0 1124 0-204 292-409 584-613 873-434 0-868 0-1302 0 281-289 536-581 791-873z"/><path class="fil0 str0" d="M8789 2610c434 0 868 0 1302 0-204 292-434 581-613 869-485 0-970 0-1455 0 255-288 536-577 766-869z"/><path class="fil0 str0" d="M8023 3479c485 0 970 0 1455 0-229 289-434 577-638 866-536 0-1072 0-1608 0 255-289 536-577 791-866z"/><path class="fil0 str0" d="M7232 4345c536 0 1072 0 1608 0-204 292-408 581-613 869-587 0-1174 0-1761 0 255-288 510-577 766-869z"/><path class="fil0 str0" d="M6466 5214c587 0 1174 0 1761 0-204 292-408 584-612 873-639 0-1302 0-1915 0 230-289 511-581 766-873z"/><path class="fil0 str0" d="M5700 6087c613 0 1276 0 1915 0-205 292-409 580-613 869-689 0-1404 0-2093 0 255-289 510-577 791-869z"/><path class="fil0 str0" d="M4909 6956c689 0 1404 0 2093 0-204 289-408 577-587 866-766 0-1506 0-2247 0 256-289 485-577 741-866z"/><path class="fil0 str0" d="M4168 7822c741 0 1481 0 2247 0-230 292-434 584-638 872-817 0-1609 0-2400 0 255-288 510-580 791-872z"/><path class="fil0 str0" d="M3377 8694c791 0 1583 0 2400 0-205 292-409 581-613 870-868 0-1711 0-2579 0 256-289 511-578 792-870z"/><path class="fil0 str0" d="M2585 9564c868 0 1711 0 2579 0-204 288-409 577-613 865-919 0-1812 0-2731 0 280-288 536-577 765-865z"/><path class="fil0 str0" d="M1820 10429c919 0 1812 0 2731 0-204 292-408 584-613 873-970 0-1940 0-2884 0 255-289 510-581 766-873z"/><path class="fil0 str0" d="M1054 11302c944 0 1914 0 2884 0-204 292-408 581-612 869-1021 0-2043 0-3038 0 255-288 510-577 766-869z"/><path class="fil0 str0" d="M288 12171c995 0 2017 0 3038 0-204 289-409 577-613 866l-2711 0 0-557c92-103 186-206 286-309z"/><path class="fil0 str0" d="M2 13037l2711 0c-204 292-408 580-587 869l-2124 0 0-869z"/><path class="fil0 str0" d="M2 13906l2124 0c-230 292-434 584-664 873l-1460 0 0-873z"/><path class="fil0 str0" d="M2 14779l1460 0c-179 292-383 580-587 869l-873 0 0-869z"/><path class="fil0 str0" d="M2 15648l873 0c-204 288-409 577-587 866l-286 0 0-866z"/><path class="fil0 str0" d="M2 16514l286 0c-99 125-192 250-286 375l0-375z"/><path class="fil0 str0" d="M11929 2c255 0 511 0 792 0-154 293-281 581-460 870-332 0-638 0-945 0 205-289 409-577 613-870z"/><path class="fil0 str0" d="M11316 872c307 0 613 0 945 0-153 288-306 577-434 865-383 0-740 0-1123 0 178-288 408-577 612-865z"/><path class="fil0 str0" d="M10704 1737c383 0 740 0 1123 0-179 292-306 584-485 873-408 0-842 0-1251 0 204-289 409-581 613-873z"/><path class="fil0 str0" d="M10091 2610c409 0 843 0 1251 0-128 292-306 581-434 869-485 0-970 0-1430 0 179-288 409-577 613-869z"/><path class="fil0 str0" d="M9478 3479c460 0 945 0 1430 0-179 289-332 577-485 866-536 0-1072 0-1583 0 204-289 409-577 638-866z"/><path class="fil0 str0" d="M8840 4345c511 0 1047 0 1583 0-153 292-281 581-460 869-561 0-1148 0-1736 0 205-288 409-577 613-869z"/><path class="fil0 str0" d="M8227 5214c588 0 1175 0 1736 0-127 292-306 584-434 873-638 0-1276 0-1914 0 204-289 408-581 612-873z"/><path class="fil0 str0" d="M7615 6087c638 0 1276 0 1914 0-178 292-306 580-459 869-689 0-1379 0-2068 0 204-289 408-577 613-869z"/><path class="fil0 str0" d="M7002 6956c689 0 1379 0 2068 0-153 289-306 577-434 866-740 0-1481 0-2221 0 179-289 383-577 587-866z"/><path class="fil0 str0" d="M6415 7822c740 0 1481 0 2221 0-179 292-332 584-485 872-792 0-1583 0-2374 0 204-288 408-580 638-872z"/><path class="fil0 str0" d="M5777 8694c791 0 1582 0 2374 0-153 292-307 581-434 870-868 0-1711 0-2553 0 204-289 408-578 613-870z"/><path class="fil0 str0" d="M5164 9564c842 0 1685 0 2553 0-153 288-307 577-460 865-893 0-1812 0-2706 0 204-288 409-577 613-865z"/><path class="fil0 str0" d="M4551 10429c894 0 1813 0 2706 0-153 292-306 584-459 873-945 0-1915 0-2860 0 205-289 409-581 613-873z"/><path class="fil0 str0" d="M3938 11302c945 0 1915 0 2860 0-153 292-307 581-460 869-995 0-2017 0-3012 0 204-288 408-577 612-869z"/><path class="fil0 str0" d="M3326 12171c995 0 2017 0 3012 0-153 289-281 577-459 866-1047 0-2119 0-3166 0 204-289 409-577 613-866z"/><path class="fil0 str0" d="M2713 13037c1047 0 2119 0 3166 0-128 292-281 580-434 869-1098 0-2221 0-3319 0 179-289 383-577 587-869z"/><path class="fil0 str0" d="M2126 13906c1098 0 2221 0 3319 0-153 292-307 584-485 873-1149 0-2324 0-3498 0 230-289 434-581 664-873z"/><path class="fil0 str0" d="M1462 14779c1174 0 2349 0 3498 0-128 292-281 580-434 869-1226 0-2451 0-3651 0 204-289 408-577 587-869z"/><path class="fil0 str0" d="M875 15648c1200 0 2425 0 3651 0-154 288-307 577-434 866-1277 0-2553 0-3804 0 178-289 383-578 587-866z"/><path class="fil0 str0" d="M288 16514c1251 0 2527 0 3804 0-154 292-307 584-485 872l-3605 0 0-497c94-125 187-250 286-375z"/><path class="fil0 str0" d="M2 17386l3605 0c-154 292-281 581-460 869l-3145 0 0-869z"/><path class="fil0 str0" d="M2 18255l3145 0c-153 289-281 578-434 866l-2711 0 0-866z"/><path class="fil0 str0" d="M2 19121l2711 0c-153 292-306 581-459 869l-2252 0 0-869z"/><path class="fil0 str0" d="M2 19990l2252 0c-179 292-307 584-460 873l-1792 0 0-873z"/><path class="fil0 str0" d="M2 20863l1792 0c-153 289-281 577-460 866l-1332 0 0-866z"/><path class="fil0 str0" d="M2 21729l1332 0c-153 292-306 580-434 869l-898 0 0-869z"/><path class="fil0 str0" d="M2 22598l898 0c-153 292-306 584-459 873l-439 0 0-873z"/><path class="fil0 str0" d="M2 23471l439 0c-146 278-292 554-439 829l0-829z"/><path class="fil0 str0" d="M12721 2c255 0 536 0 791 0-77 293-179 581-281 870-332 0-664 0-970 0 179-289 306-577 460-870z"/><path class="fil0 str0" d="M12261 872c306 0 638 0 970 0-102 288-204 577-281 865-383 0-766 0-1123 0 128-288 281-577 434-865z"/><path class="fil0 str0" d="M11827 1737c357 0 740 0 1123 0-127 292-204 584-306 873-434 0-868 0-1302 0 179-289 306-581 485-873z"/><path class="fil0 str0" d="M11342 2610c434 0 868 0 1302 0-102 292-204 581-306 869-485 0-970 0-1430 0 128-288 306-577 434-869z"/><path class="fil0 str0" d="M10908 3479c460 0 945 0 1430 0-102 289-205 577-307 866-536 0-1072 0-1608 0 153-289 306-577 485-866z"/><path class="fil0 str0" d="M10423 4345c536 0 1072 0 1608 0-102 292-178 581-306 869-587 0-1174 0-1762 0 179-288 307-577 460-869z"/><path class="fil0 str0" d="M9963 5214c588 0 1175 0 1762 0-77 292-179 584-281 873-638 0-1276 0-1915 0 128-289 307-581 434-873z"/><path class="fil0 str0" d="M9529 6087c639 0 1277 0 1915 0-102 292-204 580-306 869-690 0-1379 0-2068 0 153-289 281-577 459-869z"/><path class="fil0 str0" d="M9070 6956c689 0 1378 0 2068 0-77 289-179 577-256 866-765 0-1506 0-2246 0 128-289 281-577 434-866z"/><path class="fil0 str0" d="M8636 7822c740 0 1481 0 2246 0-127 292-229 584-331 872-792 0-1609 0-2400 0 153-288 306-580 485-872z"/><path class="fil0 str0" d="M8151 8694c791 0 1608 0 2400 0-103 292-179 581-281 870-868 0-1711 0-2553 0 127-289 281-578 434-870z"/><path class="fil0 str0" d="M7717 9564c842 0 1685 0 2553 0-102 288-179 577-281 865-919 0-1838 0-2732 0 153-288 307-577 460-865z"/><path class="fil0 str0" d="M7257 10429c894 0 1813 0 2732 0-128 292-204 584-306 873-971 0-1941 0-2885 0 153-289 306-581 459-873z"/><path class="fil0 str0" d="M6798 11302c944 0 1914 0 2885 0-103 292-205 581-307 869-995 0-2017 0-3038 0 153-288 307-577 460-869z"/><path class="fil0 str0" d="M6338 12171c1021 0 2043 0 3038 0-102 289-178 577-281 866-1072 0-2144 0-3216 0 178-289 306-577 459-866z"/><path class="fil0 str0" d="M5879 13037c1072 0 2144 0 3216 0-102 292-178 580-280 869-1124 0-2247 0-3370 0 153-289 306-577 434-869z"/><path class="fil0 str0" d="M5445 13906c1123 0 2246 0 3370 0-103 292-205 584-332 873-1175 0-2349 0-3523 0 178-289 332-581 485-873z"/><path class="fil0 str0" d="M4960 14779c1174 0 2348 0 3523 0-77 292-179 580-281 869-1226 0-2476 0-3676 0 153-289 306-577 434-869z"/><path class="fil0 str0" d="M4526 15648c1200 0 2450 0 3676 0-102 288-179 577-255 866-1302 0-2579 0-3855 0 127-289 280-578 434-866z"/><path class="fil0 str0" d="M4092 16514c1276 0 2553 0 3855 0-128 292-205 584-358 872-1327 0-2680 0-3982 0 178-288 331-580 485-872z"/><path class="fil0 str0" d="M3607 17386c1302 0 2655 0 3982 0-76 292-153 581-255 869-1404 0-2808 0-4187 0 179-288 306-577 460-869z"/><path class="fil0 str0" d="M3147 18255c1379 0 2783 0 4187 0-128 289-204 578-281 866-1455 0-2910 0-4340 0 153-288 281-577 434-866z"/><path class="fil0 str0" d="M2713 19121c1430 0 2885 0 4340 0-128 292-204 581-306 869-1507 0-3013 0-4493 0 153-288 306-577 459-869z"/><path class="fil0 str0" d="M2254 19990c1480 0 2986 0 4493 0-128 292-205 584-307 873-1557 0-3114 0-4646 0 153-289 281-581 460-873z"/><path class="fil0 str0" d="M1794 20863c1532 0 3089 0 4646 0-102 289-178 577-280 866-1609 0-3217 0-4826 0 179-289 307-577 460-866z"/><path class="fil0 str0" d="M1334 21729c1609 0 3217 0 4826 0-128 292-205 580-281 869-1685 0-3345 0-4979 0 128-289 281-577 434-869z"/><path class="fil0 str0" d="M900 22598c1634 0 3294 0 4979 0-128 292-205 584-332 873-1711 0-3421 0-5106 0 153-289 306-581 459-873z"/><path class="fil0 str0" d="M441 23471c1685 0 3395 0 5106 0-77 292-179 580-281 869l-5264 0 0-40c147-275 293-551 439-829z"/><path class="fil0 str0" d="M2 24340l5264 0c-102 288-179 577-281 865l-4983 0 0-865z"/><path class="fil0 str0" d="M2 25205l4983 0c-102 293-204 585-306 873l-4677 0 0-873z"/><path class="fil0 str0" d="M2 26078l4677 0c-102 292-179 581-281 869l-4396 0 0-869z"/><path class="fil0 str0" d="M2 26947l4396 0c-102 289-204 577-281 866l-4115 0 0-866z"/><path class="fil0 str0" d="M2 27813l4115 0c-127 292-204 581-306 869l-3809 0 0-869z"/><path class="fil0 str0" d="M2 28682l3809 0c-102 292-230 584-307 873l-3502 0 0-873z"/><path class="fil0 str0" d="M2 29555l3502 0c-102 288-178 577-280 866l-3222 0 0-866z"/><path class="fil0 str0" d="M13512 2c255 0 536 0 791 0-25 293-76 581-127 870-332 0-638 0-945 0 102-289 204-577 281-870z"/><path class="fil0 str0" d="M13231 872c307 0 613 0 945 0-51 288-102 577-128 865-357 0-740 0-1098 0 77-288 179-577 281-865z"/><path class="fil0 str0" d="M12950 1737c358 0 741 0 1098 0-51 292-76 584-153 873-409 0-843 0-1251 0 102-289 179-581 306-873z"/><path class="fil0 str0" d="M12644 2610c408 0 842 0 1251 0-26 292-77 581-128 869-485 0-944 0-1429 0 102-288 204-577 306-869z"/><path class="fil0 str0" d="M12338 3479c485 0 944 0 1429 0-51 289-102 577-153 866-536 0-1072 0-1583 0 102-289 205-577 307-866z"/><path class="fil0 str0" d="M12031 4345c511 0 1047 0 1583 0-25 292-76 581-128 869-587 0-1174 0-1761 0 128-288 204-577 306-869z"/><path class="fil0 str0" d="M11725 5214c587 0 1174 0 1761 0-51 292-102 584-127 873-638 0-1277 0-1915 0 102-289 204-581 281-873z"/><path class="fil0 str0" d="M11444 6087c638 0 1277 0 1915 0-51 292-102 580-153 869-690 0-1379 0-2068 0 102-289 204-577 306-869z"/><path class="fil0 str0" d="M11138 6956c689 0 1378 0 2068 0-26 289-77 577-102 866-741 0-1481 0-2222 0 77-289 179-577 256-866z"/><path class="fil0 str0" d="M10882 7822c741 0 1481 0 2222 0-52 292-128 584-154 872-791 0-1582 0-2399 0 102-288 204-580 331-872z"/><path class="fil0 str0" d="M10551 8694c817 0 1608 0 2399 0-51 292-102 581-127 870-868 0-1711 0-2553 0 102-289 178-578 281-870z"/><path class="fil0 str0" d="M10270 9564c842 0 1685 0 2553 0-51 288-102 577-153 865-894 0-1788 0-2681 0 102-288 179-577 281-865z"/><path class="fil0 str0" d="M9989 10429c893 0 1787 0 2681 0-52 292-77 584-128 873-945 0-1915 0-2859 0 102-289 178-581 306-873z"/><path class="fil0 str0" d="M9683 11302c944 0 1914 0 2859 0-51 292-102 581-128 869-1021 0-2017 0-3038 0 102-288 204-577 307-869z"/><path class="fil0 str0" d="M9376 12171c1021 0 2017 0 3038 0-51 289-76 577-153 866-1047 0-2119 0-3166 0 103-289 179-577 281-866z"/><path class="fil0 str0" d="M9095 13037c1047 0 2119 0 3166 0-25 292-77 580-102 869-1123 0-2221 0-3344 0 102-289 178-577 280-869z"/><path class="fil0 str0" d="M8815 13906c1123 0 2221 0 3344 0-51 292-102 584-179 873-1149 0-2323 0-3497 0 127-289 229-581 332-873z"/><path class="fil0 str0" d="M8483 14779c1174 0 2348 0 3497 0-25 292-76 580-127 869-1226 0-2426 0-3651 0 102-289 204-577 281-869z"/><path class="fil0 str0" d="M8202 15648c1225 0 2425 0 3651 0-26 288-77 577-103 866-1276 0-2552 0-3803 0 76-289 153-578 255-866z"/><path class="fil0 str0" d="M7947 16514c1251 0 2527 0 3803 0-51 292-102 584-178 872-1328 0-2655 0-3983 0 153-288 230-580 358-872z"/><path class="fil0 str0" d="M7589 17386c1328 0 2655 0 3983 0-26 292-51 581-128 869-1378 0-2757 0-4110 0 102-288 179-577 255-869z"/><path class="fil0 str0" d="M7334 18255c1353 0 2732 0 4110 0-51 289-76 578-102 866-1430 0-2859 0-4289 0 77-288 153-577 281-866z"/><path class="fil0 str0" d="M7053 19121c1430 0 2859 0 4289 0-77 292-102 581-153 869-1481 0-2962 0-4442 0 102-288 178-577 306-869z"/><path class="fil0 str0" d="M6747 19990c1480 0 2961 0 4442 0-51 292-102 584-128 873-1557 0-3089 0-4621 0 102-289 179-581 307-873z"/><path class="fil0 str0" d="M6440 20863c1532 0 3064 0 4621 0-51 289-102 577-153 866-1583 0-3166 0-4748 0 102-289 178-577 280-866z"/><path class="fil0 str0" d="M6160 21729c1582 0 3165 0 4748 0-51 292-77 580-102 869-1660 0-3293 0-4927 0 76-289 153-577 281-869z"/><path class="fil0 str0" d="M5879 22598c1634 0 3267 0 4927 0-77 292-102 584-153 873-1711 0-3396 0-5106 0 127-289 204-581 332-873z"/><path class="fil0 str0" d="M5547 23471c1710 0 3395 0 5106 0-51 292-102 580-128 869-1761 0-3497 0-5259 0 102-289 204-577 281-869z"/><path class="fil0 str0" d="M5266 24340c1762 0 3498 0 5259 0-51 288-102 577-128 865-1812 0-3599 0-5412 0 102-288 179-577 281-865z"/><path class="fil0 str0" d="M4985 25205c1813 0 3600 0 5412 0-51 293-102 585-153 873-1838 0-3702 0-5565 0 102-288 204-580 306-873z"/><path class="fil0 str0" d="M4679 26078c1863 0 3727 0 5565 0-51 292-76 581-127 869-1915 0-3830 0-5719 0 102-288 179-577 281-869z"/><path class="fil0 str0" d="M4398 26947c1889 0 3804 0 5719 0-51 289-103 577-128 866-1966 0-3932 0-5872 0 77-289 179-577 281-866z"/><path class="fil0 str0" d="M4117 27813c1940 0 3906 0 5872 0-51 292-102 581-128 869-2017 0-4033 0-6050 0 102-288 179-577 306-869z"/><path class="fil0 str0" d="M3811 28682c2017 0 4033 0 6050 0-76 292-127 584-153 873-2068 0-4136 0-6204 0 77-289 205-581 307-873z"/><path class="fil0 str0" d="M3504 29555c2068 0 4136 0 6204 0-51 288-76 577-128 866-2118 0-4237 0-6356 0 102-289 178-578 280-866z"/><path class="fil0 str0" d="M14303 2c281 0 537 0 817 0 26 293 26 581 26 870-332 0-664 0-970 0 51-289 102-577 127-870z"/><path class="fil0 str0" d="M14176 872c306 0 638 0 970 0 0 288 0 577 25 865-383 0-740 0-1123 0 26-288 77-577 128-865z"/><path class="fil0 str0" d="M14048 1737c383 0 740 0 1123 0 0 292 26 584 26 873-434 0-868 0-1302 0 77-289 102-581 153-873z"/><path class="fil0 str0" d="M13895 2610c434 0 868 0 1302 0 25 292 0 581 25 869-485 0-970 0-1455 0 51-288 102-577 128-869z"/><path class="fil0 str0" d="M13767 3479c485 0 970 0 1455 0 0 289 0 577 0 866-536 0-1072 0-1608 0 51-289 102-577 153-866z"/><path class="fil0 str0" d="M13614 4345c536 0 1072 0 1608 0 26 292 26 581 26 869-587 0-1174 0-1762 0 52-288 103-577 128-869z"/><path class="fil0 str0" d="M13486 5214c588 0 1175 0 1762 0 26 292 26 584 26 873-639 0-1277 0-1915 0 25-289 76-581 127-873z"/><path class="fil0 str0" d="M13359 6087c638 0 1276 0 1915 0 0 292 25 580 25 869-689 0-1404 0-2093 0 51-289 102-577 153-869z"/><path class="fil0 str0" d="M13206 6956c689 0 1404 0 2093 0 26 289 26 577 51 866-766 0-1506 0-2246 0 25-289 76-577 102-866z"/><path class="fil0 str0" d="M13104 7822c740 0 1480 0 2246 0 0 292 0 584 0 872-817 0-1608 0-2400 0 26-288 102-580 154-872z"/><path class="fil0 str0" d="M12950 8694c792 0 1583 0 2400 0 0 292 26 581 26 870-868 0-1711 0-2553 0 25-289 76-578 127-870z"/><path class="fil0 str0" d="M12823 9564c842 0 1685 0 2553 0 25 288 25 577 25 865-919 0-1812 0-2731 0 51-288 102-577 153-865z"/><path class="fil0 str0" d="M12670 10429c919 0 1812 0 2731 0 0 292 26 584 26 873-970 0-1941 0-2885 0 51-289 76-581 128-873z"/><path class="fil0 str0" d="M12542 11302c944 0 1915 0 2885 0 25 292 25 581 25 869-1021 0-2042 0-3038 0 26-288 77-577 128-869z"/><path class="fil0 str0" d="M12414 12171c996 0 2017 0 3038 0 0 289 26 577 26 866-1072 0-2145 0-3217 0 77-289 102-577 153-866z"/><path class="fil0 str0" d="M12261 13037c1072 0 2145 0 3217 0 25 292 25 580 51 869-1149 0-2272 0-3370 0 25-289 77-577 102-869z"/><path class="fil0 str0" d="M12159 13906c1098 0 2221 0 3370 0 0 292 0 584 0 873-1200 0-2374 0-3549 0 77-289 128-581 179-873z"/><path class="fil0 str0" d="M11980 14779c1175 0 2349 0 3549 0 0 292 25 580 25 869-1251 0-2476 0-3701 0 51-289 102-577 127-869z"/><path class="fil0 str0" d="M11853 15648c1225 0 2450 0 3701 0 0 288 26 577 51 866-1302 0-2578 0-3855 0 26-289 77-578 103-866z"/><path class="fil0 str0" d="M11750 16514c1277 0 2553 0 3855 0 0 292 0 584-25 872-1353 0-2681 0-4008 0 76-288 127-580 178-872z"/><path class="fil0 str0" d="M11572 17386c1327 0 2655 0 4008 0 25 292 51 581 51 869-1404 0-2808 0-4187 0 77-288 102-577 128-869z"/><path class="fil0 str0" d="M11444 18255c1379 0 2783 0 4187 0 0 289 25 578 25 866-1455 0-2884 0-4314 0 26-288 51-577 102-866z"/><path class="fil0 str0" d="M11342 19121c1430 0 2859 0 4314 0 0 292 26 581 26 869-1506 0-3012 0-4493 0 51-288 76-577 153-869z"/><path class="fil0 str0" d="M11189 19990c1481 0 2987 0 4493 0 0 292 0 584 26 873-1558 0-3115 0-4647 0 26-289 77-581 128-873z"/><path class="fil0 str0" d="M11061 20863c1532 0 3089 0 4647 0 0 289 25 577 25 866-1608 0-3217 0-4825 0 51-289 102-577 153-866z"/><path class="fil0 str0" d="M10908 21729c1608 0 3217 0 4825 0 0 292 0 580 26 869-1660 0-3319 0-4953 0 25-289 51-577 102-869z"/><path class="fil0 str0" d="M10806 22598c1634 0 3293 0 4953 0 0 292 25 584 25 873-1736 0-3446 0-5131 0 51-289 76-581 153-873z"/><path class="fil0 str0" d="M10653 23471c1685 0 3395 0 5131 0 0 292 26 580 26 869-1762 0-3549 0-5285 0 26-289 77-577 128-869z"/><path class="fil0 str0" d="M10525 24340c1736 0 3523 0 5285 0 0 288 25 577 25 865-1812 0-3651 0-5438 0 26-288 77-577 128-865z"/><path class="fil0 str0" d="M10397 25205c1787 0 3626 0 5438 0 0 293 26 585 26 873-1889 0-3753 0-5617 0 51-288 102-580 153-873z"/><path class="fil0 str0" d="M10244 26078c1864 0 3728 0 5617 0 0 292 25 581 25 869-1940 0-3880 0-5769 0 51-288 76-577 127-869z"/><path class="fil0 str0" d="M10117 26947c1889 0 3829 0 5769 0 0 289 26 577 26 866-1992 0-3957 0-5923 0 25-289 77-577 128-866z"/><path class="fil0 str0" d="M9989 27813c1966 0 3931 0 5923 0 0 292 25 581 25 869-2042 0-4084 0-6076 0 26-288 77-577 128-869z"/><path class="fil0 str0" d="M9861 28682c1992 0 4034 0 6076 0 0 292 0 584 26 873-2094 0-4187 0-6255 0 26-289 77-581 153-873z"/><path class="fil0 str0" d="M9708 29555c2068 0 4161 0 6255 0 0 288 25 577 25 866-2144 0-4289 0-6408 0 52-289 77-578 128-866z"/><path class="fil0 str0" d="M15120 2c256 0 511 0 792 0 76 293 127 581 178 870-331 0-638 0-944 0 0-289 0-577-26-870z"/><path class="fil0 str0" d="M15146 872c306 0 613 0 944 0 77 288 128 577 205 865-383 0-741 0-1124 0-25-288-25-577-25-865z"/><path class="fil0 str0" d="M15171 1737c383 0 741 0 1124 0 51 292 127 584 178 873-434 0-868 0-1276 0 0-289-26-581-26-873z"/><path class="fil0 str0" d="M15197 2610c408 0 842 0 1276 0 77 292 103 581 179 869-485 0-970 0-1430 0-25-288 0-577-25-869z"/><path class="fil0 str0" d="M15222 3479c460 0 945 0 1430 0 51 289 102 577 153 866-536 0-1072 0-1583 0 0-289 0-577 0-866z"/><path class="fil0 str0" d="M15222 4345c511 0 1047 0 1583 0 77 292 153 581 205 869-588 0-1175 0-1762 0 0-288 0-577-26-869z"/><path class="fil0 str0" d="M15248 5214c587 0 1174 0 1762 0 51 292 102 584 178 873-638 0-1276 0-1914 0 0-289 0-581-26-873z"/><path class="fil0 str0" d="M15274 6087c638 0 1276 0 1914 0 51 292 128 580 179 869-689 0-1379 0-2068 0 0-289-25-577-25-869z"/><path class="fil0 str0" d="M15299 6956c689 0 1379 0 2068 0 77 289 128 577 204 866-740 0-1481 0-2221 0-25-289-25-577-51-866z"/><path class="fil0 str0" d="M15350 7822c740 0 1481 0 2221 0 51 292 102 584 179 872-817 0-1608 0-2400 0 0-288 0-580 0-872z"/><path class="fil0 str0" d="M15350 8694c792 0 1583 0 2400 0 51 292 102 581 179 870-868 0-1711 0-2553 0 0-289-26-578-26-870z"/><path class="fil0 str0" d="M15376 9564c842 0 1685 0 2553 0 76 288 127 577 178 865-893 0-1812 0-2706 0 0-288 0-577-25-865z"/><path class="fil0 str0" d="M15401 10429c894 0 1813 0 2706 0 51 292 128 584 205 873-971 0-1941 0-2885 0 0-289-26-581-26-873z"/><path class="fil0 str0" d="M15427 11302c944 0 1914 0 2885 0 51 292 102 581 178 869-1021 0-2042 0-3038 0 0-288 0-577-25-869z"/><path class="fil0 str0" d="M15452 12171c996 0 2017 0 3038 0 51 289 128 577 179 866-1072 0-2145 0-3191 0 0-289-26-577-26-866z"/><path class="fil0 str0" d="M15478 13037c1046 0 2119 0 3191 0 77 292 128 580 204 869-1123 0-2246 0-3344 0-26-289-26-577-51-869z"/><path class="fil0 str0" d="M15529 13906c1098 0 2221 0 3344 0 51 292 102 584 153 873-1174 0-2348 0-3497 0 0-289 0-581 0-873z"/><path class="fil0 str0" d="M15529 14779c1149 0 2323 0 3497 0 77 292 128 580 179 869-1225 0-2451 0-3651 0 0-289-25-577-25-869z"/><path class="fil0 str0" d="M15554 15648c1200 0 2426 0 3651 0 77 288 128 577 230 866-1302 0-2579 0-3830 0-25-289-51-578-51-866z"/><path class="fil0 str0" d="M15605 16514c1251 0 2528 0 3830 0 51 292 102 584 127 872-1327 0-2655 0-3982 0 25-288 25-580 25-872z"/><path class="fil0 str0" d="M15580 17386c1327 0 2655 0 3982 0 77 292 154 581 205 869-1404 0-2783 0-4136 0 0-288-26-577-51-869z"/><path class="fil0 str0" d="M15631 18255c1353 0 2732 0 4136 0 51 289 127 578 204 866-1455 0-2885 0-4315 0 0-288-25-577-25-866z"/><path class="fil0 str0" d="M15656 19121c1430 0 2860 0 4315 0 51 292 102 581 179 869-1507 0-2987 0-4468 0 0-288-26-577-26-869z"/><path class="fil0 str0" d="M15682 19990c1481 0 2961 0 4468 0 51 292 102 584 178 873-1557 0-3089 0-4620 0-26-289-26-581-26-873z"/><path class="fil0 str0" d="M15708 20863c1531 0 3063 0 4620 0 51 289 128 577 179 866-1608 0-3191 0-4774 0 0-289-25-577-25-866z"/><path class="fil0 str0" d="M15733 21729c1583 0 3166 0 4774 0 51 292 128 580 204 869-1659 0-3319 0-4952 0-26-289-26-577-26-869z"/><path class="fil0 str0" d="M15759 22598c1633 0 3293 0 4952 0 51 292 102 584 179 873-1736 0-3421 0-5106 0 0-289-25-581-25-873z"/><path class="fil0 str0" d="M15784 23471c1685 0 3370 0 5106 0 51 292 128 580 179 869-1762 0-3523 0-5259 0 0-289-26-577-26-869z"/><path class="fil0 str0" d="M15810 24340c1736 0 3497 0 5259 0 51 288 127 577 178 865-1812 0-3599 0-5412 0 0-288-25-577-25-865z"/><path class="fil0 str0" d="M15835 25205c1813 0 3600 0 5412 0 77 293 128 585 205 873-1890 0-3728 0-5591 0 0-288-26-580-26-873z"/><path class="fil0 str0" d="M15861 26078c1863 0 3701 0 5591 0 51 292 102 581 178 869-1940 0-3855 0-5744 0 0-288-25-577-25-869z"/><path class="fil0 str0" d="M15886 26947c1889 0 3804 0 5744 0 51 289 128 577 179 866-1966 0-3931 0-5897 0 0-289-26-577-26-866z"/><path class="fil0 str0" d="M15912 27813c1966 0 3931 0 5897 0 51 292 128 581 179 869-2017 0-4034 0-6051 0 0-288-25-577-25-869z"/><path class="fil0 str0" d="M15937 28682c2017 0 4034 0 6051 0 76 292 102 584 178 873-2093 0-4161 0-6203 0-26-289-26-581-26-873z"/><path class="fil0 str0" d="M15963 29555c2042 0 4110 0 6203 0 77 288 128 577 205 866-2145 0-4264 0-6383 0 0-289-25-578-25-866z"/><path class="fil0 str0" d="M15912 2c255 0 536 0 791 0 128 293 255 581 332 870-306 0-638 0-945 0-51-289-102-577-178-870z"/><path class="fil0 str0" d="M16090 872c307 0 639 0 945 0 128 288 230 577 357 865-357 0-740 0-1097 0-77-288-128-577-205-865z"/><path class="fil0 str0" d="M16295 1737c357 0 740 0 1097 0 103 292 256 584 332 873-408 0-842 0-1251 0-51-289-127-581-178-873z"/><path class="fil0 str0" d="M16473 2610c409 0 843 0 1251 0 128 292 230 581 358 869-485 0-970 0-1430 0-76-288-102-577-179-869z"/><path class="fil0 str0" d="M16652 3479c460 0 945 0 1430 0 102 289 204 577 306 866-510 0-1047 0-1583 0-51-289-102-577-153-866z"/><path class="fil0 str0" d="M16805 4345c536 0 1073 0 1583 0 128 292 255 581 358 869-588 0-1149 0-1736 0-52-288-128-577-205-869z"/><path class="fil0 str0" d="M17010 5214c587 0 1148 0 1736 0 127 292 229 584 357 873-638 0-1277 0-1915 0-76-289-127-581-178-873z"/><path class="fil0 str0" d="M17188 6087c638 0 1277 0 1915 0 102 292 230 580 332 869-689 0-1379 0-2068 0-51-289-128-577-179-869z"/><path class="fil0 str0" d="M17367 6956c689 0 1379 0 2068 0 127 289 255 577 357 866-740 0-1480 0-2221 0-76-289-127-577-204-866z"/><path class="fil0 str0" d="M17571 7822c741 0 1481 0 2221 0 102 292 230 584 332 872-791 0-1583 0-2374 0-77-288-128-580-179-872z"/><path class="fil0 str0" d="M17750 8694c791 0 1583 0 2374 0 102 292 230 581 358 870-868 0-1711 0-2553 0-77-289-128-578-179-870z"/><path class="fil0 str0" d="M17929 9564c842 0 1685 0 2553 0 102 288 229 577 331 865-893 0-1812 0-2706 0-51-288-102-577-178-865z"/><path class="fil0 str0" d="M18107 10429c894 0 1813 0 2706 0 103 292 230 584 358 873-970 0-1915 0-2859 0-77-289-154-581-205-873z"/><path class="fil0 str0" d="M18312 11302c944 0 1889 0 2859 0 102 292 204 581 332 869-996 0-2017 0-3013 0-76-288-127-577-178-869z"/><path class="fil0 str0" d="M18490 12171c996 0 2017 0 3013 0 102 289 229 577 332 866-1047 0-2119 0-3166 0-51-289-128-577-179-866z"/><path class="fil0 str0" d="M18669 13037c1047 0 2119 0 3166 0 127 292 255 580 357 869-1098 0-2221 0-3319 0-76-289-127-577-204-869z"/><path class="fil0 str0" d="M18873 13906c1098 0 2221 0 3319 0 128 292 230 584 332 873-1174 0-2323 0-3498 0-51-289-102-581-153-873z"/><path class="fil0 str0" d="M19026 14779c1175 0 2324 0 3498 0 127 292 230 580 332 869-1200 0-2426 0-3651 0-51-289-102-577-179-869z"/><path class="fil0 str0" d="M19205 15648c1225 0 2451 0 3651 0 127 288 255 577 383 866-1277 0-2553 0-3804 0-102-289-153-578-230-866z"/><path class="fil0 str0" d="M19435 16514c1251 0 2527 0 3804 0 102 292 229 584 306 872-1328 0-2655 0-3983 0-25-288-76-580-127-872z"/><path class="fil0 str0" d="M19562 17386c1328 0 2655 0 3983 0 128 292 255 581 357 869-1378 0-2757 0-4135 0-51-288-128-577-205-869z"/><path class="fil0 str0" d="M19767 18255c1378 0 2757 0 4135 0 103 289 230 578 358 866-1430 0-2859 0-4289 0-77-288-153-577-204-866z"/><path class="fil0 str0" d="M19971 19121c1430 0 2859 0 4289 0 102 292 230 581 332 869-1481 0-2962 0-4442 0-77-288-128-577-179-869z"/><path class="fil0 str0" d="M20150 19990c1480 0 2961 0 4442 0 102 292 229 584 332 873-1532 0-3064 0-4596 0-76-289-127-581-178-873z"/><path class="fil0 str0" d="M20328 20863c1532 0 3064 0 4596 0 127 289 255 577 357 866-1583 0-3191 0-4774 0-51-289-128-577-179-866z"/><path class="fil0 str0" d="M20507 21729c1583 0 3191 0 4774 0 102 292 230 580 357 869-1659 0-3293 0-4927 0-76-289-153-577-204-869z"/><path class="fil0 str0" d="M20711 22598c1634 0 3268 0 4927 0 103 292 230 584 332 873-1710 0-3395 0-5080 0-77-289-128-581-179-873z"/><path class="fil0 str0" d="M20890 23471c1685 0 3370 0 5080 0 102 292 230 580 358 869-1762 0-3498 0-5259 0-51-289-128-577-179-869z"/><path class="fil0 str0" d="M21069 24340c1761 0 3497 0 5259 0 102 288 204 577 332 865-1787 0-3600 0-5413 0-51-288-127-577-178-865z"/><path class="fil0 str0" d="M21247 25205c1813 0 3626 0 5413 0 102 293 229 585 357 873-1864 0-3727 0-5565 0-77-288-128-580-205-873z"/><path class="fil0 str0" d="M21452 26078c1838 0 3701 0 5565 0 102 292 230 581 332 869-1915 0-3830 0-5719 0-76-288-127-577-178-869z"/><path class="fil0 str0" d="M21630 26947c1889 0 3804 0 5719 0 102 289 230 577 357 866-1965 0-3931 0-5897 0-51-289-128-577-179-866z"/><path class="fil0 str0" d="M21809 27813c1966 0 3932 0 5897 0 102 292 205 581 332 869-2017 0-4033 0-6050 0-51-288-128-577-179-869z"/><path class="fil0 str0" d="M21988 28682c2017 0 4033 0 6050 0 102 292 204 584 332 873-2068 0-4136 0-6204 0-76-289-102-581-178-873z"/><path class="fil0 str0" d="M22166 29555c2068 0 4136 0 6204 0 128 288 230 577 357 866-2118 0-4237 0-6356 0-77-289-128-578-205-866z"/><path class="fil0 str0" d="M16703 2c255 0 536 0 792 0 204 293 357 581 510 870-332 0-638 0-970 0-77-289-204-577-332-870z"/><path class="fil0 str0" d="M17035 872c332 0 638 0 970 0 179 288 332 577 511 865-383 0-741 0-1124 0-127-288-229-577-357-865z"/><path class="fil0 str0" d="M17392 1737c383 0 741 0 1124 0 153 292 357 584 510 873-434 0-868 0-1302 0-76-289-229-581-332-873z"/><path class="fil0 str0" d="M17724 2610c434 0 868 0 1302 0 179 292 332 581 485 869-485 0-970 0-1429 0-128-288-230-577-358-869z"/><path class="fil0 str0" d="M18082 3479c459 0 944 0 1429 0 179 289 332 577 485 866-536 0-1072 0-1608 0-102-289-204-577-306-866z"/><path class="fil0 str0" d="M18388 4345c536 0 1072 0 1608 0 179 292 358 581 511 869-587 0-1174 0-1761 0-103-288-230-577-358-869z"/><path class="fil0 str0" d="M18746 5214c587 0 1174 0 1761 0 179 292 332 584 511 873-639 0-1277 0-1915 0-128-289-230-581-357-873z"/><path class="fil0 str0" d="M19103 6087c638 0 1276 0 1915 0 153 292 332 580 510 869-689 0-1404 0-2093 0-102-289-230-577-332-869z"/><path class="fil0 str0" d="M19435 6956c689 0 1404 0 2093 0 179 289 332 577 511 866-741 0-1506 0-2247 0-102-289-230-577-357-866z"/><path class="fil0 str0" d="M19792 7822c741 0 1506 0 2247 0 153 292 332 584 485 872-792 0-1608 0-2400 0-102-288-230-580-332-872z"/><path class="fil0 str0" d="M20124 8694c792 0 1608 0 2400 0 179 292 332 581 510 870-868 0-1710 0-2552 0-128-289-256-578-358-870z"/><path class="fil0 str0" d="M20482 9564c842 0 1684 0 2552 0 179 288 358 577 511 865-919 0-1838 0-2732 0-102-288-229-577-331-865z"/><path class="fil0 str0" d="M20813 10429c894 0 1813 0 2732 0 153 292 332 584 511 873-971 0-1941 0-2885 0-128-289-255-581-358-873z"/><path class="fil0 str0" d="M21171 11302c944 0 1914 0 2885 0 153 292 331 581 485 869-1022 0-2017 0-3038 0-128-288-230-577-332-869z"/><path class="fil0 str0" d="M21503 12171c1021 0 2016 0 3038 0 178 289 357 577 510 866-1072 0-2144 0-3216 0-103-289-230-577-332-866z"/><path class="fil0 str0" d="M21835 13037c1072 0 2144 0 3216 0 179 292 358 580 511 869-1123 0-2247 0-3370 0-102-289-230-577-357-869z"/><path class="fil0 str0" d="M22192 13906c1123 0 2247 0 3370 0 179 292 332 584 485 873-1174 0-2349 0-3523 0-102-289-204-581-332-873z"/><path class="fil0 str0" d="M22524 14779c1174 0 2349 0 3523 0 179 292 357 580 510 869-1250 0-2476 0-3701 0-102-289-205-577-332-869z"/><path class="fil0 str0" d="M22856 15648c1225 0 2451 0 3701 0 154 288 332 577 537 866-1302 0-2579 0-3855 0-128-289-256-578-383-866z"/><path class="fil0 str0" d="M23239 16514c1276 0 2553 0 3855 0 153 292 331 584 459 872-1353 0-2680 0-4008 0-77-288-204-580-306-872z"/><path class="fil0 str0" d="M23545 17386c1328 0 2655 0 4008 0 179 292 358 581 511 869-1404 0-2783 0-4162 0-102-288-229-577-357-869z"/><path class="fil0 str0" d="M23902 18255c1379 0 2758 0 4162 0 153 289 332 578 510 866-1455 0-2885 0-4314 0-128-288-255-577-358-866z"/><path class="fil0 str0" d="M24260 19121c1429 0 2859 0 4314 0 153 292 332 581 511 869-1506 0-3013 0-4493 0-102-288-230-577-332-869z"/><path class="fil0 str0" d="M24592 19990c1480 0 2987 0 4493 0 153 292 332 584 485 873-1557 0-3115 0-4646 0-103-289-230-581-332-873z"/><path class="fil0 str0" d="M24924 20863c1531 0 3089 0 4646 0 147 238 295 476 428 713l0 153-4717 0c-102-289-230-577-357-866z"/><path class="fil0 str0" d="M25281 21729l4717 0 0 869-4360 0c-127-289-255-577-357-869z"/><path class="fil0 str0" d="M25638 22598l4360 0 0 873-4028 0c-102-289-229-581-332-873z"/><path class="fil0 str0" d="M25970 23471l4028 0 0 869-3670 0c-128-289-256-577-358-869z"/><path class="fil0 str0" d="M26328 24340l3670 0 0 865-3338 0c-128-288-230-577-332-865z"/><path class="fil0 str0" d="M26660 25205l3338 0 0 873-2981 0c-128-288-255-580-357-873z"/><path class="fil0 str0" d="M27017 26078l2981 0 0 869-2649 0c-102-288-230-577-332-869z"/><path class="fil0 str0" d="M27349 26947l2649 0 0 866-2292 0c-127-289-255-577-357-866z"/><path class="fil0 str0" d="M27706 27813l2292 0 0 869-1960 0c-127-288-230-577-332-869z"/><path class="fil0 str0" d="M28038 28682l1960 0 0 873-1628 0c-128-289-230-581-332-873z"/><path class="fil0 str0" d="M28370 29555l1628 0 0 866-1271 0c-127-289-229-578-357-866z"/><path class="fil0 str0" d="M17495 2c280 0 536 0 791 0 255 293 485 581 664 870-307 0-638 0-945 0-153-289-306-577-510-870z"/><path class="fil0 str0" d="M18005 872c307 0 638 0 945 0 230 288 459 577 689 865-383 0-740 0-1123 0-179-288-332-577-511-865z"/><path class="fil0 str0" d="M18516 1737c383 0 740 0 1123 0 204 292 460 584 638 873-408 0-842 0-1251 0-153-289-357-581-510-873z"/><path class="fil0 str0" d="M19026 2610c409 0 843 0 1251 0 256 292 434 581 664 869-459 0-945 0-1430 0-153-288-306-577-485-869z"/><path class="fil0 str0" d="M19511 3479c485 0 971 0 1430 0 230 289 434 577 638 866-510 0-1046 0-1583 0-153-289-306-577-485-866z"/><path class="fil0 str0" d="M19996 4345c537 0 1073 0 1583 0 256 292 460 581 690 869-588 0-1175 0-1762 0-153-288-332-577-511-869z"/><path class="fil0 str0" d="M20507 5214c587 0 1174 0 1762 0 229 292 434 584 663 873-638 0-1276 0-1914 0-179-289-332-581-511-873z"/><path class="fil0 str0" d="M21018 6087c638 0 1276 0 1914 0 205 292 434 580 664 869-689 0-1379 0-2068 0-178-289-357-577-510-869z"/><path class="fil0 str0" d="M21528 6956c689 0 1379 0 2068 0 230 289 434 577 664 866-741 0-1481 0-2221 0-179-289-332-577-511-866z"/><path class="fil0 str0" d="M22039 7822c740 0 1480 0 2221 0 230 292 434 584 664 872-792 0-1609 0-2400 0-153-288-332-580-485-872z"/><path class="fil0 str0" d="M22524 8694c791 0 1608 0 2400 0 204 292 434 581 663 870-868 0-1710 0-2553 0-178-289-331-578-510-870z"/><path class="fil0 str0" d="M23034 9564c843 0 1685 0 2553 0 205 288 434 577 639 865-894 0-1787 0-2681 0-153-288-332-577-511-865z"/><path class="fil0 str0" d="M23545 10429c894 0 1787 0 2681 0 229 292 459 584 689 873-970 0-1915 0-2859 0-179-289-358-581-511-873z"/><path class="fil0 str0" d="M24056 11302c944 0 1889 0 2859 0 204 292 434 581 664 869-1022 0-2017 0-3038 0-154-288-332-577-485-869z"/><path class="fil0 str0" d="M24541 12171c1021 0 2016 0 3038 0 204 289 434 577 638 866-1047 0-2119 0-3166 0-153-289-332-577-510-866z"/><path class="fil0 str0" d="M25051 13037c1047 0 2119 0 3166 0 230 292 459 580 689 869-1123 0-2221 0-3344 0-153-289-332-577-511-869z"/><path class="fil0 str0" d="M25562 13906c1123 0 2221 0 3344 0 204 292 434 584 638 873-1174 0-2323 0-3497 0-153-289-306-581-485-873z"/><path class="fil0 str0" d="M26047 14779c1174 0 2323 0 3497 0 154 195 308 389 454 582l0 287-3441 0c-153-289-331-577-510-869z"/><path class="fil0 str0" d="M26557 15648l3441 0 0 866-2904 0c-205-289-383-578-537-866z"/><path class="fil0 str0" d="M27094 16514l2904 0 0 872-2445 0c-128-288-306-580-459-872z"/><path class="fil0 str0" d="M27553 17386l2445 0 0 869-1934 0c-153-288-332-577-511-869z"/><path class="fil0 str0" d="M28064 18255l1934 0 0 866-1424 0c-178-288-357-577-510-866z"/><path class="fil0 str0" d="M28574 19121l1424 0 0 869-913 0c-179-288-358-577-511-869z"/><path class="fil0 str0" d="M29085 19990l913 0 0 873-428 0c-153-289-332-581-485-873z"/><path class="fil0 str0" d="M29570 20863l428 0 0 713c-133-237-281-475-428-713z"/><path class="fil0 str0" d="M18286 2c281 0 536 0 817 0 281 293 562 581 817 870-332 0-638 0-970 0-179-289-409-577-664-870z"/><path class="fil0 str0" d="M18950 872c332 0 638 0 970 0 281 288 536 577 842 865-383 0-766 0-1123 0-230-288-459-577-689-865z"/><path class="fil0 str0" d="M19639 1737c357 0 740 0 1123 0 256 292 562 584 817 873-434 0-868 0-1302 0-178-289-434-581-638-873z"/><path class="fil0 str0" d="M20277 2610c434 0 868 0 1302 0 281 292 536 581 817 869-485 0-970 0-1455 0-230-288-408-577-664-869z"/><path class="fil0 str0" d="M20941 3479c485 0 970 0 1455 0 255 289 536 577 792 866-537 0-1073 0-1609 0-204-289-408-577-638-866z"/><path class="fil0 str0" d="M21579 4345c536 0 1072 0 1609 0 306 292 561 581 842 869-587 0-1174 0-1761 0-230-288-434-577-690-869z"/><path class="fil0 str0" d="M22269 5214c587 0 1174 0 1761 0 281 292 536 584 817 873-638 0-1276 0-1915 0-229-289-434-581-663-873z"/><path class="fil0 str0" d="M22932 6087c639 0 1277 0 1915 0 281 292 562 580 817 869-689 0-1379 0-2068 0-230-289-459-577-664-869z"/><path class="fil0 str0" d="M23596 6956c689 0 1379 0 2068 0 281 289 562 577 842 866-740 0-1506 0-2246 0-230-289-434-577-664-866z"/><path class="fil0 str0" d="M24260 7822c740 0 1506 0 2246 0 281 292 537 584 817 872-817 0-1608 0-2399 0-230-288-434-580-664-872z"/><path class="fil0 str0" d="M24924 8694c791 0 1582 0 2399 0 256 292 536 581 817 870-842 0-1710 0-2553 0-229-289-459-578-663-870z"/><path class="fil0 str0" d="M25587 9564c843 0 1711 0 2553 0 281 288 562 577 817 865-919 0-1812 0-2731 0-205-288-434-577-639-865z"/><path class="fil0 str0" d="M26226 10429c919 0 1812 0 2731 0 281 292 562 584 843 873-970 0-1941 0-2885 0-230-289-460-581-689-873z"/><path class="fil0 str0" d="M26915 11302c944 0 1915 0 2885 0 67 70 133 139 198 209l0 660-2419 0c-230-288-460-577-664-869z"/><path class="fil0 str0" d="M27579 12171l2419 0 0 866-1781 0c-204-289-434-577-638-866z"/><path class="fil0 str0" d="M28217 13037l1781 0 0 869-1092 0c-230-289-459-577-689-869z"/><path class="fil0 str0" d="M28906 13906l1092 0 0 873-454 0c-204-289-434-581-638-873z"/><path class="fil0 str0" d="M29544 14779l454 0 0 582c-146-193-300-387-454-582z"/><path class="fil0 str0" d="M19103 2c255 0 536 0 791 0 332 293 664 581 970 870-306 0-638 0-944 0-255-289-536-577-817-870z"/><path class="fil0 str0" d="M19920 872c306 0 638 0 944 0 332 288 664 577 996 865-357 0-740 0-1098 0-306-288-561-577-842-865z"/><path class="fil0 str0" d="M20762 1737c358 0 741 0 1098 0 332 292 664 584 970 873-408 0-842 0-1251 0-255-289-561-581-817-873z"/><path class="fil0 str0" d="M21579 2610c409 0 843 0 1251 0 358 292 664 581 996 869-485 0-970 0-1430 0-281-288-536-577-817-869z"/><path class="fil0 str0" d="M22396 3479c460 0 945 0 1430 0 306 289 638 577 944 866-510 0-1046 0-1582 0-256-289-537-577-792-866z"/><path class="fil0 str0" d="M23188 4345c536 0 1072 0 1582 0 358 292 690 581 996 869-562 0-1149 0-1736 0-281-288-536-577-842-869z"/><path class="fil0 str0" d="M24030 5214c587 0 1174 0 1736 0 332 292 664 584 996 873-639 0-1277 0-1915 0-281-289-536-581-817-873z"/><path class="fil0 str0" d="M24847 6087c638 0 1276 0 1915 0 306 292 638 580 970 869-689 0-1379 0-2068 0-255-289-536-577-817-869z"/><path class="fil0 str0" d="M25664 6956c689 0 1379 0 2068 0 332 289 664 577 995 866-740 0-1480 0-2221 0-280-289-561-577-842-866z"/><path class="fil0 str0" d="M26506 7822c741 0 1481 0 2221 0 332 292 639 584 971 872-792 0-1583 0-2375 0-280-288-536-580-817-872z"/><path class="fil0 str0" d="M27323 8694c792 0 1583 0 2375 0 100 88 200 176 300 263l0 607-1858 0c-281-289-561-578-817-870z"/><path class="fil0 str0" d="M28140 9564l1858 0 0 865-1041 0c-255-288-536-577-817-865z"/><path class="fil0 str0" d="M28957 10429l1041 0 0 873-198 0c-281-289-562-581-843-873z"/><path class="fil0 str0" d="M29800 11302l198 0 0 209c-65-70-131-139-198-209z"/><path class="fil0 str0" d="M19894 2c256 0 536 0 792 0 408 293 791 581 1149 870-332 0-639 0-971 0-306-289-638-577-970-870z"/><path class="fil0 str0" d="M20864 872c332 0 639 0 971 0 382 288 765 577 1148 865-383 0-740 0-1123 0-332-288-664-577-996-865z"/><path class="fil0 str0" d="M21860 1737c383 0 740 0 1123 0 383 292 766 584 1149 873-434 0-868 0-1302 0-306-289-638-581-970-873z"/><path class="fil0 str0" d="M22830 2610c434 0 868 0 1302 0 383 292 741 581 1123 869-485 0-970 0-1429 0-332-288-638-577-996-869z"/><path class="fil0 str0" d="M23826 3479c459 0 944 0 1429 0 383 289 766 577 1124 866-536 0-1072 0-1609 0-306-289-638-577-944-866z"/><path class="fil0 str0" d="M24770 4345c537 0 1073 0 1609 0 408 292 791 581 1149 869-588 0-1175 0-1762 0-306-288-638-577-996-869z"/><path class="fil0 str0" d="M25766 5214c587 0 1174 0 1762 0 383 292 765 584 1148 873-638 0-1276 0-1914 0-332-289-664-581-996-873z"/><path class="fil0 str0" d="M26762 6087c638 0 1276 0 1914 0 383 292 766 580 1149 869-689 0-1404 0-2093 0-332-289-664-577-970-869z"/><path class="fil0 str0" d="M27732 6956c689 0 1404 0 2093 0l173 130 0 736-1271 0c-331-289-663-577-995-866z"/><path class="fil0 str0" d="M28727 7822l1271 0 0 872-300 0c-332-288-639-580-971-872z"/><path class="fil0 str0" d="M29698 8694l300 0 0 263c-100-87-200-175-300-263z"/><path class="fil0 str0" d="M20686 2c281 0 536 0 791 0 460 293 894 581 1302 870-306 0-638 0-944 0-358-289-741-577-1149-870z"/><path class="fil0 str0" d="M21835 872c306 0 638 0 944 0 434 288 868 577 1328 865-383 0-741 0-1124 0-383-288-766-577-1148-865z"/><path class="fil0 str0" d="M22983 1737c383 0 741 0 1124 0 408 292 868 584 1276 873-408 0-842 0-1251 0-383-289-766-581-1149-873z"/><path class="fil0 str0" d="M24132 2610c409 0 843 0 1251 0 460 292 868 581 1302 869-459 0-944 0-1430 0-382-288-740-577-1123-869z"/><path class="fil0 str0" d="M25255 3479c486 0 971 0 1430 0 434 289 868 577 1277 866-511 0-1047 0-1583 0-358-289-741-577-1124-866z"/><path class="fil0 str0" d="M26379 4345c536 0 1072 0 1583 0 459 292 893 581 1327 869-587 0-1174 0-1761 0-358-288-741-577-1149-869z"/><path class="fil0 str0" d="M27528 5214c587 0 1174 0 1761 0 236 159 472 318 709 476l0 397-1322 0c-383-289-765-581-1148-873z"/><path class="fil0 str0" d="M28676 6087l1322 0 0 869-173 0c-383-289-766-577-1149-869z"/><polygon class="fil0 str0" points="29825 6956 29998 6956 29998 7086 "/><path class="fil0 str0" d="M21477 2c281 0 536 0 817 0 511 293 996 581 1455 870-332 0-638 0-970 0-408-289-842-577-1302-870z"/><path class="fil0 str0" d="M22779 872c332 0 638 0 970 0 485 288 970 577 1481 865-383 0-766 0-1123 0-460-288-894-577-1328-865z"/><path class="fil0 str0" d="M24107 1737c357 0 740 0 1123 0 459 292 970 584 1455 873-434 0-868 0-1302 0-408-289-868-581-1276-873z"/><path class="fil0 str0" d="M25383 2610c434 0 868 0 1302 0 485 292 970 581 1455 869-485 0-970 0-1455 0-434-288-842-577-1302-869z"/><path class="fil0 str0" d="M26685 3479c485 0 970 0 1455 0 485 289 970 577 1430 866-536 0-1072 0-1608 0-409-289-843-577-1277-866z"/><path class="fil0 str0" d="M27962 4345c536 0 1072 0 1608 0 144 83 287 165 428 247l0 622-709 0c-434-288-868-577-1327-869z"/><path class="fil0 str0" d="M29289 5214l709 0 0 476c-237-158-473-317-709-476z"/><path class="fil0 str0" d="M22294 2c255 0 536 0 791 0 562 293 1098 581 1609 870-307 0-638 0-945 0-459-289-944-577-1455-870z"/><path class="fil0 str0" d="M23749 872c307 0 638 0 945 0 561 288 1098 577 1634 865-358 0-741 0-1098 0-511-288-996-577-1481-865z"/><path class="fil0 str0" d="M25230 1737c357 0 740 0 1098 0 536 292 1097 584 1608 873-408 0-842 0-1251 0-485-289-996-581-1455-873z"/><path class="fil0 str0" d="M26685 2610c409 0 843 0 1251 0 562 292 1098 581 1634 869-485 0-970 0-1430 0-485-288-970-577-1455-869z"/><path class="fil0 str0" d="M28140 3479c460 0 945 0 1430 0 143 77 285 154 428 231l0 635-428 0c-460-289-945-577-1430-866z"/><path class="fil0 str0" d="M29570 4345l428 0 0 247c-141-82-284-164-428-247z"/><path class="fil0 str0" d="M23085 2c256 0 537 0 792 0 613 293 1225 581 1787 870-332 0-638 0-970 0-511-289-1047-577-1609-870z"/><path class="fil0 str0" d="M24694 872c332 0 638 0 970 0 587 288 1174 577 1787 865-383 0-740 0-1123 0-536-288-1073-577-1634-865z"/><path class="fil0 str0" d="M26328 1737c383 0 740 0 1123 0 587 292 1200 584 1762 873-409 0-843 0-1277 0-511-289-1072-581-1608-873z"/><path class="fil0 str0" d="M27936 2610c434 0 868 0 1277 0 265 127 526 253 785 378l0 491-428 0c-536-288-1072-577-1634-869z"/><path class="fil0 str0" d="M29570 3479l428 0 0 231c-143-77-285-154-428-231z"/><path class="fil0 str0" d="M23877 2c281 0 536 0 791 0 690 293 1328 581 1941 870-307 0-639 0-945 0-562-289-1174-577-1787-870z"/><path class="fil0 str0" d="M25664 872c306 0 638 0 945 0 663 288 1302 577 1965 865-383 0-766 0-1123 0-613-288-1200-577-1787-865z"/><path class="fil0 str0" d="M27451 1737c357 0 740 0 1123 0 471 216 956 431 1424 645l0 228-785 0c-562-289-1175-581-1762-873z"/><path class="fil0 str0" d="M29213 2610l785 0 0 378c-259-125-520-251-785-378z"/><path class="fil0 str0" d="M24668 2c281 0 536 0 817 0 715 293 1404 581 2094 870-332 0-639 0-970 0-613-289-1251-577-1941-870z"/><path class="fil0 str0" d="M26609 872c331 0 638 0 970 0 689 288 1404 577 2093 865-357 0-740 0-1098 0-663-288-1302-577-1965-865z"/><path class="fil0 str0" d="M28574 1737c358 0 741 0 1098 0 109 45 217 89 326 133l0 512c-468-214-953-429-1424-645z"/><path class="fil0 str0" d="M25485 2c256 0 536 0 792 0 766 293 1531 581 2272 870-332 0-664 0-970 0-690-289-1379-577-2094-870z"/><path class="fil0 str0" d="M27579 872c306 0 638 0 970 0 480 187 961 374 1449 562l0 303-326 0c-689-288-1404-577-2093-865z"/><path class="fil0 str0" d="M29672 1737l326 0 0 133c-109-44-217-88-326-133z"/><path class="fil0 str0" d="M26277 2c255 0 536 0 791 0 843 293 1634 581 2425 870-332 0-638 0-944 0-741-289-1506-577-2272-870z"/><path class="fil0 str0" d="M28549 872c306 0 612 0 944 0 167 61 335 121 505 182l0 380c-488-188-969-375-1449-562z"/><path class="fil0 str0" d="M27068 2c281 0 536 0 817 0 709 239 1418 475 2113 711l0 159-505 0c-791-289-1582-577-2425-870z"/><path class="fil0 str0" d="M29493 872l505 0 0 182c-170-61-338-121-505-182z"/><path class="fil0 str0" d="M27885 2c255 0 511 0 791 0 442 141 883 280 1322 419l0 292c-695-236-1404-472-2113-711z"/><path class="fil0 str0" d="M28676 2c256 0 537 0 792 0 177 53 354 104 530 156l0 263c-439-139-880-278-1322-419z"/><path class="fil0 str0" d="M29468 2l530 0 0 156c-176-52-353-103-530-156z"/><polygon class="fil0 str0" points="29998 30421 2 30421 2 388 29998 388 "/><polygon class="fil0 str0" points="2 2 747 2 1539 2 2330 2 3147 2 3938 2 4730 2 5547 2 6338 2 7130 2 7921 2 8738 2 9529 2 10321 2 11112 2 11929 2 12721 2 13512 2 14303 2 15120 2 15912 2 16703 2 17495 2 18286 2 19103 2 19894 2 20686 2 21477 2 22294 2 23085 2 23877 2 24668 2 25485 2 26277 2 27068 2 27885 2 28676 2 29468 2 29998 2 29998 30421 28727 30421 22371 30421 15988 30421 9580 30421 3224 30421 2 30421 "/></svg>